<svg width="191" height="43" viewBox="0 0 191 43" fill="none" xmlns="http://www.w3.org/2000/svg">
<rect x="0.5" y="0.5" width="190" height="42" rx="7.5" stroke="#022060"/>
<path d="M11.0312 25.75C11.0312 25.2322 10.6115 24.8125 10.0937 24.8125C9.57599 24.8125 9.15625 25.2322 9.15625 25.75H11.0312ZM28.0937 25.75C28.0937 25.2322 27.674 24.8125 27.1562 24.8125C26.6385 24.8125 26.2187 25.2322 26.2187 25.75H28.0937ZM17.8857 26.4234C17.5674 26.8316 17.6401 27.4207 18.0484 27.7392C18.4566 28.0576 19.0457 27.9849 19.3642 27.5766L17.8857 26.4234ZM24.2392 21.3266C24.5576 20.9184 24.4849 20.3292 24.0766 20.0107C23.6684 19.6924 23.0792 19.7651 22.7607 20.1734L24.2392 21.3266ZM17.8857 27.5766C18.2042 27.9849 18.7934 28.0576 19.2016 27.7392C19.6099 27.4207 19.6826 26.8316 19.3642 26.4234L17.8857 27.5766ZM14.4892 20.1734C14.1708 19.7651 13.5817 19.6924 13.1734 20.0107C12.7651 20.3292 12.6923 20.9184 13.0108 21.3266L14.4892 20.1734ZM17.6875 27C17.6875 27.5177 18.1072 27.9375 18.625 27.9375C19.1427 27.9375 19.5625 27.5177 19.5625 27H17.6875ZM19.5625 13.25C19.5625 12.7322 19.1427 12.3125 18.625 12.3125C18.1072 12.3125 17.6875 12.7322 17.6875 13.25H19.5625ZM9.15625 25.75V27H11.0312V25.75H9.15625ZM9.15625 27C9.15625 29.5664 11.1907 31.6875 13.75 31.6875V29.8125C12.2707 29.8125 11.0312 28.5759 11.0312 27H9.15625ZM13.75 31.6875H23.5V29.8125H13.75V31.6875ZM23.5 31.6875C26.0592 31.6875 28.0937 29.5664 28.0937 27H26.2187C26.2187 28.5759 24.9792 29.8125 23.5 29.8125V31.6875ZM28.0937 27V25.75H26.2187V27H28.0937ZM19.3642 27.5766L24.2392 21.3266L22.7607 20.1734L17.8857 26.4234L19.3642 27.5766ZM19.3642 26.4234L14.4892 20.1734L13.0108 21.3266L17.8857 27.5766L19.3642 26.4234ZM19.5625 27V13.25H17.6875V27H19.5625Z" fill="#022060"/>
<path d="M39.8516 22.5391H37.3672V21.3125H39.8516C40.3203 21.3125 40.6979 21.2188 40.9844 21.0312C41.276 20.8438 41.487 20.5833 41.6172 20.25C41.7526 19.9167 41.8203 19.5365 41.8203 19.1094C41.8203 18.7188 41.7526 18.3516 41.6172 18.0078C41.487 17.6641 41.276 17.388 40.9844 17.1797C40.6979 16.9661 40.3203 16.8594 39.8516 16.8594H37.6641V27H36.2266V15.625H39.8516C40.5859 15.625 41.2057 15.7734 41.7109 16.0703C42.2161 16.3672 42.599 16.7786 42.8594 17.3047C43.125 17.8255 43.2578 18.4219 43.2578 19.0938C43.2578 19.8229 43.125 20.4453 42.8594 20.9609C42.599 21.4766 42.2161 21.8698 41.7109 22.1406C41.2057 22.4062 40.5859 22.5391 39.8516 22.5391ZM46.2969 19.875V27H44.9141V18.5469H46.25L46.2969 19.875ZM48.3984 18.5L48.4062 19.8438C48.2917 19.8177 48.1875 19.8021 48.0938 19.7969C48.0052 19.7865 47.901 19.7812 47.7812 19.7812C47.5208 19.7812 47.2917 19.8333 47.0938 19.9375C46.901 20.0417 46.7344 20.1875 46.5938 20.375C46.4531 20.5625 46.3411 20.7865 46.2578 21.0469C46.1745 21.3021 46.1172 21.5833 46.0859 21.8906L45.7266 22.125C45.7266 21.6146 45.7656 21.1354 45.8438 20.6875C45.9271 20.2396 46.0547 19.8438 46.2266 19.5C46.3984 19.151 46.6172 18.8802 46.8828 18.6875C47.1536 18.4896 47.4766 18.3906 47.8516 18.3906C47.9349 18.3906 48.0365 18.4036 48.1562 18.4297C48.2812 18.4505 48.362 18.474 48.3984 18.5ZM52.6562 27.1562C52.151 27.1562 51.6953 27.0807 51.2891 26.9297C50.8828 26.7786 50.5365 26.5495 50.25 26.2422C49.9635 25.9297 49.7448 25.5365 49.5938 25.0625C49.4427 24.5885 49.3672 24.0286 49.3672 23.3828V22.4297C49.3672 21.6849 49.4531 21.0547 49.625 20.5391C49.8021 20.0234 50.0391 19.6094 50.3359 19.2969C50.6328 18.9792 50.9688 18.75 51.3438 18.6094C51.7188 18.4635 52.1042 18.3906 52.5 18.3906C53.0312 18.3906 53.4844 18.4766 53.8594 18.6484C54.2344 18.8203 54.5391 19.0755 54.7734 19.4141C55.0078 19.7526 55.1797 20.1693 55.2891 20.6641C55.4036 21.1589 55.4609 21.7292 55.4609 22.375V23.1797H50.1797V22H54.0781V21.8047C54.0573 21.3672 53.9974 20.9818 53.8984 20.6484C53.8047 20.3151 53.6484 20.0547 53.4297 19.8672C53.2109 19.6745 52.901 19.5781 52.5 19.5781C52.2448 19.5781 52.0078 19.6224 51.7891 19.7109C51.5755 19.7943 51.3906 19.9427 51.2344 20.1562C51.0833 20.3646 50.9635 20.6536 50.875 21.0234C50.7917 21.3932 50.75 21.862 50.75 22.4297V23.3828C50.75 23.8359 50.7917 24.2266 50.875 24.5547C50.9635 24.8776 51.0911 25.1458 51.2578 25.3594C51.4297 25.5677 51.638 25.724 51.8828 25.8281C52.1328 25.9271 52.4167 25.9766 52.7344 25.9766C53.1979 25.9766 53.5807 25.888 53.8828 25.7109C54.1849 25.5286 54.4479 25.2969 54.6719 25.0156L55.3984 25.8828C55.2474 26.0964 55.0495 26.3021 54.8047 26.5C54.5651 26.6927 54.2682 26.8516 53.9141 26.9766C53.5651 27.0964 53.1458 27.1562 52.6562 27.1562ZM61.4062 25.0469V18.5469H62.7891V27H61.4766L61.4062 25.0469ZM61.6641 23.2656L62.2109 23.25C62.2109 23.8125 62.1615 24.3333 62.0625 24.8125C61.9688 25.2865 61.8125 25.6979 61.5938 26.0469C61.3802 26.3958 61.0964 26.6693 60.7422 26.8672C60.388 27.0599 59.9531 27.1562 59.4375 27.1562C59.0885 27.1562 58.7708 27.0964 58.4844 26.9766C58.2031 26.8568 57.9583 26.6719 57.75 26.4219C57.5469 26.1719 57.388 25.8464 57.2734 25.4453C57.1641 25.0443 57.1094 24.5625 57.1094 24V18.5469H58.4844V24.0156C58.4844 24.3958 58.5182 24.7109 58.5859 24.9609C58.6536 25.2057 58.7448 25.401 58.8594 25.5469C58.974 25.6875 59.1016 25.7865 59.2422 25.8438C59.3828 25.901 59.526 25.9297 59.6719 25.9297C60.1615 25.9297 60.5521 25.8125 60.8438 25.5781C61.1354 25.3385 61.3438 25.0182 61.4688 24.6172C61.599 24.2109 61.6641 23.7604 61.6641 23.2656ZM70.2188 25.8125V27H65.1016V25.8125H70.2188ZM70.0625 19.5703L65.4141 27H64.5703V25.9375L69.1875 18.5469H70.0625V19.5703ZM69.4609 18.5469V19.7422H64.5938V18.5469H69.4609ZM73.2812 20.2266V27H71.9062V18.5469H73.2031L73.2812 20.2266ZM73 22.4531L72.3594 22.4297C72.3542 21.8516 72.4115 21.3177 72.5312 20.8281C72.651 20.3333 72.8307 19.9036 73.0703 19.5391C73.3151 19.1745 73.6198 18.8932 73.9844 18.6953C74.3542 18.4922 74.7839 18.3906 75.2734 18.3906C75.5964 18.3906 75.8958 18.4479 76.1719 18.5625C76.4531 18.6719 76.6979 18.8464 76.9062 19.0859C77.1146 19.3255 77.276 19.6328 77.3906 20.0078C77.5104 20.3828 77.5703 20.8359 77.5703 21.3672V27H76.1875V21.4375C76.1875 20.9948 76.1276 20.6406 76.0078 20.375C75.8932 20.1094 75.7292 19.9167 75.5156 19.7969C75.3021 19.6719 75.0469 19.6094 74.75 19.6094C74.4115 19.6094 74.1276 19.6849 73.8984 19.8359C73.6745 19.987 73.4948 20.1953 73.3594 20.4609C73.2292 20.7266 73.1354 21.0312 73.0781 21.375C73.026 21.7135 73 22.0729 73 22.4531ZM77.5547 21.6562L76.6328 21.9531C76.6276 21.4896 76.6849 21.0443 76.8047 20.6172C76.9245 20.1901 77.1016 19.8099 77.3359 19.4766C77.5755 19.1432 77.8724 18.8802 78.2266 18.6875C78.5807 18.4896 78.9922 18.3906 79.4609 18.3906C79.8464 18.3906 80.1875 18.4505 80.4844 18.5703C80.7812 18.6901 81.0312 18.875 81.2344 19.125C81.4427 19.3698 81.599 19.6849 81.7031 20.0703C81.8073 20.4557 81.8594 20.9141 81.8594 21.4453V27H80.4766V21.4297C80.4766 20.9557 80.4167 20.5885 80.2969 20.3281C80.1823 20.0625 80.0182 19.8776 79.8047 19.7734C79.5911 19.6641 79.3359 19.6094 79.0391 19.6094C78.7995 19.6094 78.5859 19.6641 78.3984 19.7734C78.2161 19.8828 78.0625 20.0339 77.9375 20.2266C77.8125 20.4141 77.7161 20.6302 77.6484 20.875C77.5859 21.1198 77.5547 21.3802 77.5547 21.6562ZM85.4297 18.5469V27H84.0547V18.5469H85.4297ZM83.9766 16.3047C83.9766 16.0703 84.0417 15.8724 84.1719 15.7109C84.3021 15.5495 84.4974 15.4688 84.7578 15.4688C85.0182 15.4688 85.2135 15.5495 85.3438 15.7109C85.4792 15.8724 85.5469 16.0703 85.5469 16.3047C85.5469 16.5286 85.4792 16.7214 85.3438 16.8828C85.2135 17.0391 85.0182 17.1172 84.7578 17.1172C84.4974 17.1172 84.3021 17.0391 84.1719 16.8828C84.0417 16.7214 83.9766 16.5286 83.9766 16.3047ZM90.7031 18.5469V19.6562H86.7578V18.5469H90.7031ZM88.0469 16.4922H89.4297V24.9062C89.4297 25.1927 89.4635 25.4089 89.5312 25.5547C89.6042 25.7005 89.6953 25.7969 89.8047 25.8438C89.9141 25.8906 90.0312 25.9141 90.1562 25.9141C90.25 25.9141 90.3542 25.9036 90.4688 25.8828C90.5833 25.8568 90.6615 25.8359 90.7031 25.8203L90.6953 27C90.6016 27.0365 90.4766 27.0703 90.3203 27.1016C90.1641 27.138 89.9661 27.1562 89.7266 27.1562C89.4297 27.1562 89.1536 27.0859 88.8984 26.9453C88.6432 26.8047 88.4375 26.5703 88.2812 26.2422C88.125 25.9089 88.0469 25.4609 88.0469 24.8984V16.4922ZM95.375 27.1562C94.8698 27.1562 94.4141 27.0807 94.0078 26.9297C93.6016 26.7786 93.2552 26.5495 92.9688 26.2422C92.6823 25.9297 92.4635 25.5365 92.3125 25.0625C92.1615 24.5885 92.0859 24.0286 92.0859 23.3828V22.4297C92.0859 21.6849 92.1719 21.0547 92.3438 20.5391C92.5208 20.0234 92.7578 19.6094 93.0547 19.2969C93.3516 18.9792 93.6875 18.75 94.0625 18.6094C94.4375 18.4635 94.8229 18.3906 95.2188 18.3906C95.75 18.3906 96.2031 18.4766 96.5781 18.6484C96.9531 18.8203 97.2578 19.0755 97.4922 19.4141C97.7266 19.7526 97.8984 20.1693 98.0078 20.6641C98.1224 21.1589 98.1797 21.7292 98.1797 22.375V23.1797H92.8984V22H96.7969V21.8047C96.776 21.3672 96.7161 20.9818 96.6172 20.6484C96.5234 20.3151 96.3672 20.0547 96.1484 19.8672C95.9297 19.6745 95.6198 19.5781 95.2188 19.5781C94.9635 19.5781 94.7266 19.6224 94.5078 19.7109C94.2943 19.7943 94.1094 19.9427 93.9531 20.1562C93.8021 20.3646 93.6823 20.6536 93.5938 21.0234C93.5104 21.3932 93.4688 21.862 93.4688 22.4297V23.3828C93.4688 23.8359 93.5104 24.2266 93.5938 24.5547C93.6823 24.8776 93.8099 25.1458 93.9766 25.3594C94.1484 25.5677 94.3568 25.724 94.6016 25.8281C94.8516 25.9271 95.1354 25.9766 95.4531 25.9766C95.9167 25.9766 96.2995 25.888 96.6016 25.7109C96.9036 25.5286 97.1667 25.2969 97.3906 25.0156L98.1172 25.8828C97.9661 26.0964 97.7682 26.3021 97.5234 26.5C97.2839 26.6927 96.987 26.8516 96.6328 26.9766C96.2839 27.0964 95.8646 27.1562 95.375 27.1562ZM107.336 22.5391H104.852V21.3125H107.336C107.805 21.3125 108.182 21.2188 108.469 21.0312C108.76 20.8438 108.971 20.5833 109.102 20.25C109.237 19.9167 109.305 19.5365 109.305 19.1094C109.305 18.7188 109.237 18.3516 109.102 18.0078C108.971 17.6641 108.76 17.388 108.469 17.1797C108.182 16.9661 107.805 16.8594 107.336 16.8594H105.148V27H103.711V15.625H107.336C108.07 15.625 108.69 15.7734 109.195 16.0703C109.701 16.3672 110.083 16.7786 110.344 17.3047C110.609 17.8255 110.742 18.4219 110.742 19.0938C110.742 19.8229 110.609 20.4453 110.344 20.9609C110.083 21.4766 109.701 21.8698 109.195 22.1406C108.69 22.4062 108.07 22.5391 107.336 22.5391ZM115.164 27H113.227L113.242 25.7734H115.164C115.846 25.7734 116.401 25.6432 116.828 25.3828C117.255 25.1172 117.57 24.7266 117.773 24.2109C117.977 23.6901 118.078 23.0469 118.078 22.2812V20.3359C118.078 19.7318 118.021 19.2109 117.906 18.7734C117.792 18.3359 117.62 17.9766 117.391 17.6953C117.161 17.4141 116.872 17.2057 116.523 17.0703C116.174 16.9297 115.766 16.8594 115.297 16.8594H113.188V15.625H115.297C115.938 15.625 116.516 15.7266 117.031 15.9297C117.547 16.1276 117.99 16.4271 118.359 16.8281C118.729 17.224 119.01 17.7161 119.203 18.3047C119.401 18.8932 119.5 19.5755 119.5 20.3516V22.2812C119.5 23.0573 119.401 23.7396 119.203 24.3281C119.01 24.9167 118.727 25.4089 118.352 25.8047C117.977 26.2005 117.521 26.5 116.984 26.7031C116.453 26.901 115.846 27 115.164 27ZM114.023 15.625V27H112.586V15.625H114.023ZM123.164 15.625V27H121.727V15.625H123.164ZM127 20.7422V21.9766H122.891V20.7422H127ZM127.648 15.625V16.8594H122.891V15.625H127.648ZM134.305 15V27H132.922V15H134.305ZM138.594 18.5469L135.586 22.4922L133.727 24.6328L133.633 23.0938L134.914 21.3281L136.93 18.5469H138.594ZM137.328 27L134.953 22.9688L135.664 21.6797L138.938 27H137.328ZM144.273 25.5547V20.9688C144.273 20.6354 144.221 20.3672 144.117 20.1641C144.018 19.9609 143.867 19.8125 143.664 19.7188C143.466 19.625 143.216 19.5781 142.914 19.5781C142.622 19.5781 142.37 19.638 142.156 19.7578C141.948 19.8776 141.786 20.0365 141.672 20.2344C141.562 20.4323 141.508 20.651 141.508 20.8906H140.125C140.125 20.5885 140.19 20.2891 140.32 19.9922C140.456 19.6953 140.648 19.4271 140.898 19.1875C141.148 18.9427 141.448 18.75 141.797 18.6094C142.151 18.4635 142.547 18.3906 142.984 18.3906C143.505 18.3906 143.966 18.4766 144.367 18.6484C144.768 18.8151 145.083 19.0885 145.312 19.4688C145.542 19.849 145.656 20.3542 145.656 20.9844V25.1562C145.656 25.4375 145.677 25.737 145.719 26.0547C145.766 26.3724 145.831 26.6458 145.914 26.875V27H144.484C144.417 26.8333 144.365 26.612 144.328 26.3359C144.292 26.0547 144.273 25.7943 144.273 25.5547ZM144.492 21.875L144.508 22.8906H143.547C143.219 22.8906 142.919 22.9271 142.648 23C142.383 23.0729 142.154 23.1797 141.961 23.3203C141.768 23.4557 141.62 23.625 141.516 23.8281C141.417 24.0312 141.367 24.263 141.367 24.5234C141.367 24.862 141.414 25.1328 141.508 25.3359C141.602 25.5339 141.742 25.6771 141.93 25.7656C142.117 25.8542 142.354 25.8984 142.641 25.8984C142.99 25.8984 143.297 25.8177 143.562 25.6562C143.828 25.4948 144.034 25.2995 144.18 25.0703C144.331 24.8411 144.401 24.6276 144.391 24.4297L144.695 25.0781C144.674 25.2812 144.607 25.5026 144.492 25.7422C144.383 25.9766 144.229 26.2031 144.031 26.4219C143.833 26.6354 143.599 26.8125 143.328 26.9531C143.062 27.0885 142.763 27.1562 142.43 27.1562C141.94 27.1562 141.51 27.0625 141.141 26.875C140.776 26.6875 140.492 26.4115 140.289 26.0469C140.086 25.6823 139.984 25.2318 139.984 24.6953C139.984 24.2891 140.055 23.9141 140.195 23.5703C140.336 23.2266 140.544 22.9297 140.82 22.6797C141.096 22.4245 141.443 22.2266 141.859 22.0859C142.281 21.9453 142.768 21.875 143.32 21.875H144.492ZM150.891 18.5469V19.6562H146.945V18.5469H150.891ZM148.234 16.4922H149.617V24.9062C149.617 25.1927 149.651 25.4089 149.719 25.5547C149.792 25.7005 149.883 25.7969 149.992 25.8438C150.102 25.8906 150.219 25.9141 150.344 25.9141C150.438 25.9141 150.542 25.9036 150.656 25.8828C150.771 25.8568 150.849 25.8359 150.891 25.8203L150.883 27C150.789 27.0365 150.664 27.0703 150.508 27.1016C150.352 27.138 150.154 27.1562 149.914 27.1562C149.617 27.1562 149.341 27.0859 149.086 26.9453C148.831 26.8047 148.625 26.5703 148.469 26.2422C148.312 25.9089 148.234 25.4609 148.234 24.8984V16.4922ZM156.68 25.5547V20.9688C156.68 20.6354 156.628 20.3672 156.523 20.1641C156.424 19.9609 156.273 19.8125 156.07 19.7188C155.872 19.625 155.622 19.5781 155.32 19.5781C155.029 19.5781 154.776 19.638 154.562 19.7578C154.354 19.8776 154.193 20.0365 154.078 20.2344C153.969 20.4323 153.914 20.651 153.914 20.8906H152.531C152.531 20.5885 152.596 20.2891 152.727 19.9922C152.862 19.6953 153.055 19.4271 153.305 19.1875C153.555 18.9427 153.854 18.75 154.203 18.6094C154.557 18.4635 154.953 18.3906 155.391 18.3906C155.911 18.3906 156.372 18.4766 156.773 18.6484C157.174 18.8151 157.49 19.0885 157.719 19.4688C157.948 19.849 158.062 20.3542 158.062 20.9844V25.1562C158.062 25.4375 158.083 25.737 158.125 26.0547C158.172 26.3724 158.237 26.6458 158.32 26.875V27H156.891C156.823 26.8333 156.771 26.612 156.734 26.3359C156.698 26.0547 156.68 25.7943 156.68 25.5547ZM156.898 21.875L156.914 22.8906H155.953C155.625 22.8906 155.326 22.9271 155.055 23C154.789 23.0729 154.56 23.1797 154.367 23.3203C154.174 23.4557 154.026 23.625 153.922 23.8281C153.823 24.0312 153.773 24.263 153.773 24.5234C153.773 24.862 153.82 25.1328 153.914 25.3359C154.008 25.5339 154.148 25.6771 154.336 25.7656C154.523 25.8542 154.76 25.8984 155.047 25.8984C155.396 25.8984 155.703 25.8177 155.969 25.6562C156.234 25.4948 156.44 25.2995 156.586 25.0703C156.737 24.8411 156.807 24.6276 156.797 24.4297L157.102 25.0781C157.081 25.2812 157.013 25.5026 156.898 25.7422C156.789 25.9766 156.635 26.2031 156.438 26.4219C156.24 26.6354 156.005 26.8125 155.734 26.9531C155.469 27.0885 155.169 27.1562 154.836 27.1562C154.346 27.1562 153.917 27.0625 153.547 26.875C153.182 26.6875 152.898 26.4115 152.695 26.0469C152.492 25.6823 152.391 25.2318 152.391 24.6953C152.391 24.2891 152.461 23.9141 152.602 23.5703C152.742 23.2266 152.951 22.9297 153.227 22.6797C153.503 22.4245 153.849 22.2266 154.266 22.0859C154.688 21.9453 155.174 21.875 155.727 21.875H156.898ZM161.695 15V27H160.32V15H161.695ZM163.594 23.1797V22.375C163.594 21.7188 163.677 21.1432 163.844 20.6484C164.01 20.1484 164.242 19.7318 164.539 19.3984C164.836 19.0651 165.182 18.8151 165.578 18.6484C165.974 18.4766 166.398 18.3906 166.852 18.3906C167.315 18.3906 167.745 18.4766 168.141 18.6484C168.536 18.8151 168.883 19.0651 169.18 19.3984C169.482 19.7318 169.716 20.1484 169.883 20.6484C170.049 21.1432 170.133 21.7188 170.133 22.375V23.1797C170.133 23.8359 170.049 24.4141 169.883 24.9141C169.716 25.4089 169.484 25.8229 169.188 26.1562C168.891 26.4896 168.544 26.7396 168.148 26.9062C167.753 27.0729 167.326 27.1562 166.867 27.1562C166.409 27.1562 165.982 27.0729 165.586 26.9062C165.19 26.7396 164.841 26.4896 164.539 26.1562C164.242 25.8229 164.01 25.4089 163.844 24.9141C163.677 24.4141 163.594 23.8359 163.594 23.1797ZM164.977 22.375V23.1797C164.977 23.6432 165.023 24.0495 165.117 24.3984C165.211 24.7474 165.344 25.0391 165.516 25.2734C165.688 25.5078 165.888 25.6849 166.117 25.8047C166.346 25.9193 166.596 25.9766 166.867 25.9766C167.18 25.9766 167.453 25.9193 167.688 25.8047C167.927 25.6849 168.125 25.5078 168.281 25.2734C168.438 25.0391 168.555 24.7474 168.633 24.3984C168.711 24.0495 168.75 23.6432 168.75 23.1797V22.375C168.75 21.9115 168.703 21.5078 168.609 21.1641C168.516 20.8151 168.383 20.5234 168.211 20.2891C168.039 20.0495 167.836 19.8724 167.602 19.7578C167.372 19.638 167.122 19.5781 166.852 19.5781C166.586 19.5781 166.339 19.638 166.109 19.7578C165.88 19.8724 165.68 20.0495 165.508 20.2891C165.341 20.5234 165.211 20.8151 165.117 21.1641C165.023 21.5078 164.977 21.9115 164.977 22.375ZM176.492 18.5469H177.734V27.0703C177.734 27.8151 177.604 28.4297 177.344 28.9141C177.089 29.3984 176.732 29.7552 176.273 29.9844C175.815 30.2188 175.286 30.3359 174.688 30.3359C174.474 30.3359 174.206 30.2969 173.883 30.2188C173.56 30.1406 173.237 30.0208 172.914 29.8594C172.591 29.7031 172.326 29.5052 172.117 29.2656L172.688 28.3047C172.984 28.6068 173.299 28.8229 173.633 28.9531C173.966 29.0833 174.284 29.1484 174.586 29.1484C174.945 29.1484 175.258 29.0833 175.523 28.9531C175.789 28.8229 175.995 28.6094 176.141 28.3125C176.286 28.0208 176.359 27.6302 176.359 27.1406V20.4062L176.492 18.5469ZM171.633 23.1797V22.3906C171.633 21.6927 171.698 21.0938 171.828 20.5938C171.958 20.0885 172.146 19.6745 172.391 19.3516C172.641 19.0234 172.94 18.7812 173.289 18.625C173.638 18.4688 174.029 18.3906 174.461 18.3906C174.898 18.3906 175.276 18.4792 175.594 18.6562C175.911 18.8333 176.174 19.0911 176.383 19.4297C176.596 19.763 176.763 20.1693 176.883 20.6484C177.008 21.1224 177.094 21.6589 177.141 22.2578V23.3125C177.094 23.9062 177.008 24.4401 176.883 24.9141C176.763 25.388 176.594 25.7917 176.375 26.125C176.161 26.4583 175.896 26.7135 175.578 26.8906C175.26 27.0677 174.883 27.1562 174.445 27.1562C174.018 27.1562 173.633 27.0755 173.289 26.9141C172.945 26.7474 172.648 26.5 172.398 26.1719C172.154 25.8385 171.964 25.4245 171.828 24.9297C171.698 24.4297 171.633 23.8464 171.633 23.1797ZM173.016 22.3906V23.1797C173.016 23.6484 173.049 24.0573 173.117 24.4062C173.185 24.75 173.289 25.0365 173.43 25.2656C173.576 25.4896 173.76 25.6562 173.984 25.7656C174.214 25.875 174.487 25.9297 174.805 25.9297C175.19 25.9297 175.505 25.8359 175.75 25.6484C175.995 25.4609 176.19 25.2135 176.336 24.9062C176.487 24.5938 176.607 24.2578 176.695 23.8984V21.6797C176.643 21.4141 176.568 21.1589 176.469 20.9141C176.375 20.6641 176.253 20.4427 176.102 20.25C175.951 20.0521 175.768 19.8958 175.555 19.7812C175.346 19.6667 175.102 19.6094 174.82 19.6094C174.503 19.6094 174.229 19.6667 174 19.7812C173.771 19.8958 173.583 20.0677 173.438 20.2969C173.292 20.526 173.185 20.8151 173.117 21.1641C173.049 21.513 173.016 21.9219 173.016 22.3906Z" fill="#022060"/>
</svg>
